<?xml version="1.0" standalone="no"?>
<!DOCTYPE svg PUBLIC "-//W3C//DTD SVG 20010904//EN"
 "http://www.w3.org/TR/2001/REC-SVG-20010904/DTD/svg10.dtd">
<svg version="1.0" xmlns="http://www.w3.org/2000/svg"
 width="820.000000pt" height="860.000000pt" viewBox="0 0 820.000000 860.000000"
 preserveAspectRatio="xMidYMid meet">

<g transform="translate(0.000000,860.000000) scale(0.100000,-0.100000)"
fill="#000000" stroke="none">
<path d="M3790 8189 c-953 -70 -1851 -481 -2526 -1156 -497 -497 -860 -1132
-1034 -1808 -215 -837 -161 -1725 152 -2515 603 -1521 2068 -2510 3718 -2510
1651 0 3115 989 3718 2510 375 946 375 2034 0 2980 -495 1249 -1581 2158
-2903 2429 -345 70 -763 96 -1125 70z m480 -1604 c244 -37 457 -144 635 -321
216 -215 335 -500 335 -804 0 -479 -296 -906 -746 -1075 -183 -69 -436 -87
-627 -45 -533 117 -907 579 -907 1120 0 694 623 1230 1310 1125z m265 -2873
c588 -91 1116 -327 1596 -713 247 -199 461 -419 510 -524 56 -119 55 -262 -2
-385 -24 -52 -52 -87 -143 -176 -423 -414 -952 -729 -1508 -898 -428 -129
-929 -161 -1408 -90 -640 96 -1251 393 -1730 840 -162 151 -260 262 -291 328
-58 124 -56 266 6 393 62 126 367 417 664 633 438 320 996 543 1501 599 52 6
111 13 130 15 19 2 150 3 290 1 192 -3 287 -8 385 -23z"/>
</g>
</svg>
